<svg width="124" height="33" viewBox="0 0 124 33" fill="none" xmlns="http://www.w3.org/2000/svg">
<path fill-rule="evenodd" clip-rule="evenodd" d="M31.6511 23.8709C28.9214 29.0338 23.4944 32.5598 17.2594 32.5598H1.41162V23.8709H31.6511" fill="#2CB5B4"/>
<path fill-rule="evenodd" clip-rule="evenodd" d="M31.6507 8.71355H0.0118408V0.0246887H17.2594C23.4944 0.0246887 28.921 3.55066 31.6507 8.71355" fill="#2CB5B4"/>
<path fill-rule="evenodd" clip-rule="evenodd" d="M33.3281 16.2924C33.3281 17.645 33.151 18.9989 32.8003 20.332H3.70911V12.2529H32.8003C33.151 13.5856 33.3281 14.9394 33.3281 16.2924" fill="#2CB5B4"/>
<path fill-rule="evenodd" clip-rule="evenodd" d="M54.4562 7.71066V21.9268H52.1377L51.9751 20.5438C51.2022 21.7437 49.9616 22.1505 48.7413 22.1505C45.7924 22.1505 43.5756 20.198 43.5756 16.9033C43.5756 13.4459 45.7517 11.6562 48.6803 11.6562C49.7379 11.6562 51.3852 12.2257 51.9751 13.2629V7.71066H54.4562ZM46.0567 16.9033C46.0567 18.6524 47.3177 19.8523 48.904 19.8523C50.4701 19.8523 51.8123 18.7134 51.8123 16.9033C51.8123 15.1543 50.4701 13.9747 48.904 13.9747C47.3177 13.9747 46.0567 15.0933 46.0567 16.9033Z" fill="#2CB5B4"/>
<path fill-rule="evenodd" clip-rule="evenodd" d="M66.7198 11.9003L60.5982 26.1163H57.8729L59.744 21.7641L55.7374 11.9003H58.6254L60.1507 16.2322L61.1066 19.0591L62.1438 16.2932L63.9742 11.9003H66.7198" fill="#2CB5B4"/>
<path fill-rule="evenodd" clip-rule="evenodd" d="M75.4038 21.9268V16.6797C75.4038 15.1543 74.57 13.9951 72.9837 13.9951C71.4583 13.9951 70.4211 15.2764 70.4211 16.8017V21.9268H67.9602V11.8799H70.177L70.3397 13.2425C71.3566 12.246 72.3735 11.7375 73.6345 11.7375C75.9936 11.7375 77.885 13.507 77.885 16.6593V21.9268H75.4038" fill="#2CB5B4"/>
<path fill-rule="evenodd" clip-rule="evenodd" d="M87.9726 11.9003H90.3521V21.9268H88.0133L87.8913 20.4625C87.3218 21.642 85.7558 22.2115 84.6372 22.2319C81.6679 22.2522 79.4714 20.4218 79.4714 16.9034C79.4714 13.4459 81.7696 11.6359 84.6982 11.6562C86.0406 11.6562 87.3218 12.2867 87.8913 13.2832L87.9726 11.9003ZM81.9526 16.9034C81.9526 18.8151 83.2746 19.954 84.922 19.954C88.8268 19.954 88.8268 13.873 84.922 13.873C83.2746 13.873 81.9526 14.9916 81.9526 16.9034Z" fill="#2CB5B4"/>
<path fill-rule="evenodd" clip-rule="evenodd" d="M99.3119 21.9268V16.5576C99.3119 15.2356 98.6204 14.0357 97.2578 14.0357C95.9155 14.0357 95.1223 15.2356 95.1223 16.5576V21.9268H92.6411V11.8799H94.9393L95.1223 13.1002C95.6511 12.0833 96.8103 11.7172 97.7662 11.7172C98.9662 11.7172 100.166 12.2053 100.736 13.5883C101.63 12.1646 102.79 11.7579 104.091 11.7579C106.939 11.7579 108.342 13.5069 108.342 16.5169V21.9268H105.861V16.5169C105.861 15.1949 105.312 14.0764 103.969 14.0764C102.627 14.0764 101.793 15.2356 101.793 16.5576V21.9268H99.3119" fill="#2CB5B4"/>
<path fill-rule="evenodd" clip-rule="evenodd" d="M113.374 9.0733C113.374 11.0054 110.446 11.0054 110.446 9.0733C110.446 7.14121 113.374 7.14121 113.374 9.0733ZM110.669 21.9268H113.15V11.8596H110.669V21.9268Z" fill="#2CB5B4"/>
<path fill-rule="evenodd" clip-rule="evenodd" d="M123.99 20.6455C122.831 21.7844 121.611 22.2318 120.126 22.2318C117.218 22.2318 114.798 20.4828 114.798 16.9237C114.798 13.3646 117.218 11.6155 120.126 11.6155C121.55 11.6155 122.648 12.0223 123.746 13.1002L122.18 14.7475C121.591 14.2187 120.858 13.9544 120.167 13.9544C118.499 13.9544 117.279 15.1746 117.279 16.9237C117.279 18.8354 118.581 19.8523 120.126 19.8523C120.919 19.8523 121.713 19.6286 122.323 19.0185L123.99 20.6455" fill="#2CB5B4"/>
</svg>
