<svg width="108" height="53" viewBox="0 0 108 53" fill="none" xmlns="http://www.w3.org/2000/svg">
<path fill-rule="evenodd" clip-rule="evenodd" d="M17.7504 11.2077L15.6719 18.3357H26.363L0.0302734 52.9845L6.96017 28.7302H0.426025L6.76198 0.0210266H40.2228L31.8083 11.2077H17.7504Z" fill="#2CB5B4"/>
<path fill-rule="evenodd" clip-rule="evenodd" d="M45.9336 16.1994C47.1514 16.1994 48.0282 16.3943 48.759 16.7352L48.3449 19.3901C47.9308 19.1953 47.3463 19.0491 46.6156 19.0491C45.3734 19.0491 44.3017 19.4875 44.0825 20.9002L43.912 21.8988H47.4681L47.0296 24.7486H43.4492L42.0609 33.59H38.6753L40.088 24.7486H38.0664L38.5292 21.8988H40.5264L40.7456 20.5592C41.2814 17.125 43.7415 16.1994 45.9336 16.1994Z" fill="#2CB5B4"/>
<path fill-rule="evenodd" clip-rule="evenodd" d="M60.6692 21.8988L58.818 33.59H55.8466L56.0901 32.0799C55.0915 33.2246 53.6789 33.931 52.047 33.931C49.0267 33.931 47.4923 31.7389 47.9307 29.011L49.0511 21.8988H52.4123L51.3406 28.7917C51.0727 30.3749 51.8521 31.0082 53.0699 31.0082C54.3852 31.0082 55.4812 30.2288 56.1145 29.4494L57.3079 21.8988H60.6692Z" fill="#2CB5B4"/>
<path fill-rule="evenodd" clip-rule="evenodd" d="M66.6122 39.2894C64.5662 39.2894 62.8369 38.8023 61.5947 38.096L62.0575 35.2462C63.2267 36.05 64.6637 36.4397 66.2956 36.4397C68.3902 36.4397 70.2413 35.5872 70.6067 33.3221L70.7772 32.2504C70.1439 33.0298 68.8773 33.931 66.807 33.931C63.1048 33.931 61.4243 30.8377 61.9601 27.5252C62.4472 24.4563 64.8829 21.5578 68.4633 21.5578C70.4362 21.5578 71.7271 22.4103 72.4578 23.75L72.7744 21.8988H75.7946L73.9923 33.3708C73.3103 37.6575 70.0465 39.2894 66.6122 39.2894ZM67.7569 31.0813C69.3401 31.0813 70.6067 30.1314 71.2643 29.084L71.7271 26.2343C71.4348 25.2357 70.4849 24.4075 69.1209 24.4075C67.0993 24.4075 65.638 25.8446 65.3213 27.8419C65.0534 29.5468 65.9059 31.0813 67.7569 31.0813Z" fill="#2CB5B4"/>
<path fill-rule="evenodd" clip-rule="evenodd" d="M76.842 33.59L78.6932 21.8988H82.0787L80.2276 33.59H76.842ZM80.8365 19.9747C79.7161 19.9747 78.8149 19.2683 79.0342 17.8313C79.229 16.6134 80.1545 16.102 81.1531 16.102C82.2979 16.102 83.1748 16.8327 82.9555 18.2454C82.7607 19.4632 81.8352 19.9747 80.8365 19.9747Z" fill="#2CB5B4"/>
<path fill-rule="evenodd" clip-rule="evenodd" d="M88.2895 33.931C84.5873 33.931 82.9066 30.8377 83.4425 27.5252C83.9296 24.4563 86.3166 21.5578 89.9457 21.5578C92.0891 21.5578 93.3556 22.7026 93.9645 23.8474L94.2812 21.8988H97.2526L95.4016 33.59H92.4301L92.698 31.8607C91.7968 33.0054 90.3598 33.931 88.2895 33.931ZM89.2394 31.0813C90.8225 31.0813 92.0891 30.0826 92.7467 29.0353L93.2095 26.3074C92.9415 25.2601 91.9917 24.4075 90.6033 24.4075C88.5818 24.4075 87.1203 25.8933 86.8037 27.8175C86.5358 29.5468 87.3883 31.0813 89.2394 31.0813Z" fill="#2CB5B4"/>
<path fill-rule="evenodd" clip-rule="evenodd" d="M104.925 17.6852L104.268 21.8988H107.97L107.507 24.7486H103.805L103.05 29.425C102.855 30.6672 103.342 31.0813 104.584 31.0813C105.412 31.0813 106.143 30.9351 106.849 30.6429L106.411 33.4195C105.68 33.7362 104.535 33.931 103.366 33.931C101.15 33.931 99.177 32.7862 99.6398 29.8878L100.444 24.7486H98.4707L98.9334 21.8988H100.882L101.442 18.5133L104.925 17.6852Z" fill="#2CB5B4"/>
</svg>
